<svg id="Layer_1" xmlns="http://www.w3.org/2000/svg" viewBox="0 0 150 150"><style>.st0{fill:#00aeef}</style><path class="st0" d="M34.3 129.6c-1.5 0-2.7-1.2-2.7-2.7 0-1.5 1.2-2.7 2.7-2.7h84.1c1.5 0 2.7 1.2 2.7 2.7 0 1.5-1.2 2.7-2.7 2.7H34.3zm2.3-11.4c-1.5 0-2.7-1.2-2.7-2.7V65.3l-1 .8c-4.5 3.3-9.1 6.4-13.8 9.4-.3.2-.7.3-1 .4-1 .2-2.1-.3-2.7-1.2-.8-1.3-.4-2.9.8-3.7 21-13.2 39.7-29.8 56.4-49.5 1.1-1.3 3-1.3 4.1 0 5.6 6.6 11.7 13 18.3 19.1l3.6 3.2V29.6c0-1.5 1.2-2.7 2.7-2.7 1.5 0 2.7 1.2 2.7 2.7v17.2c0 .4-.1.7-.2 1l-.2.3 5.6 4.5c7.5 5.8 15.6 11.3 24.5 16.5 1.3.7 1.7 2.4 1 3.7-.7 1.3-2.4 1.7-3.7 1-2.7-1.6-5.3-3.1-7.8-4.7l-5.8-3.9v50.6c0 1.5-1.2 2.7-2.7 2.7H36.6zm23.7-5.4l-.1-.5V83.1c0-3.6 2.9-6.6 6.6-6.6h18.1c3.6 0 6.6 3 6.6 6.6v29.2l-.1.5H112V61.1l-3.2-2.3c-11.4-8.6-21.3-17.7-30.2-27.4l-3.9-4.3-4.4 5.1C60.7 42.8 50.4 52.4 39.5 61l-.5.4c.1.3.2.7.2 1v50.4h21.1zm25.9 0l-.1-.5V83.1c0-.7-.6-1.2-1.2-1.2H66.8c-.6 0-1.2.5-1.2 1.2v29.2l-.1.5h20.7zm-35-49.4c-.9 0-1.7-.4-2.2-1.2-.8-1.2-.5-2.9.7-3.7 6.8-4.7 12.4-9.8 17.2-15.2 1-1.1 2.7-1.2 3.8-.2 1.1 1 1.2 2.7.2 3.8-5 5.6-10.9 11-18.1 16-.5.4-1 .5-1.6.5z"/></svg>